<svg viewBox="0 0 900 300" width="900" height="300" xmlns="http://www.w3.org/2000/svg" role="img" aria-label="ausecon — Australian economic &amp; financial data MCP server">
  <defs>
    <linearGradient id="aBg" x1="0" y1="0" x2="1" y2="1">
      <stop offset="0" stop-color="#0a2c57"></stop><stop offset="0.55" stop-color="#0b2444"></stop><stop offset="1" stop-color="#091a33"></stop>
    </linearGradient>
    <linearGradient id="aArea" x1="0" y1="0" x2="0" y2="1">
      <stop offset="0" stop-color="#3f7fd6" stop-opacity="0.55"></stop><stop offset="1" stop-color="#3f7fd6" stop-opacity="0"></stop>
    </linearGradient>
  </defs>
  <rect width="900" height="300" rx="10" fill="url(#aBg)"></rect>
  <g stroke="#ffffff" stroke-opacity="0.05">
    <path d="M0 75H900M0 150H900M0 225H900"></path>
    <path d="M150 0V300M300 0V300M450 0V300M600 0V300M750 0V300"></path>
  </g>
  <g fill="#e3b23c" opacity="0.9">
    <circle cx="788" cy="58" r="2.6"></circle><circle cx="828" cy="86" r="3.4"></circle><circle cx="806" cy="118" r="2.2"></circle>
    <circle cx="852" cy="128" r="2.8"></circle><circle cx="824" cy="150" r="1.6"></circle>
  </g>
  <path d="M0 300 L0 236 L75 226 L150 242 L225 206 L300 214 L375 178 L450 190 L525 150 L600 164 L675 120 L750 134 L825 96 L900 108 L900 300 Z" fill="url(#aArea)"></path>
  <path d="M0 236 L75 226 L150 242 L225 206 L300 214 L375 178 L450 190 L525 150 L600 164 L675 120 L750 134 L825 96 L900 108" fill="none" stroke="#6fa8e6" stroke-width="2.2" stroke-linejoin="round" stroke-linecap="round"></path>
  <text x="450" y="96" text-anchor="middle" fill="#e3b23c" font-family="ui-monospace, SFMono-Regular, Menlo, monospace" font-size="13" letter-spacing="4" font-weight="600">PYTHON · MCP SERVER</text>
  <text x="450" y="166" text-anchor="middle" fill="#ffffff" font-family="-apple-system, BlinkMacSystemFont, Segoe UI, Helvetica, Arial, sans-serif" font-size="68" font-weight="800" letter-spacing="-2">ausecon</text>
  <text x="450" y="206" text-anchor="middle" fill="#b9c7dc" font-family="-apple-system, BlinkMacSystemFont, Segoe UI, Helvetica, Arial, sans-serif" font-size="18">Australian economic &amp; financial data, ready for your AI client</text>
</svg>